<svg width="16" height="16" viewBox="0 0 16 16" fill="none" xmlns="http://www.w3.org/2000/svg">
<g id="SidebarIcon">
<path id="Vector" d="M3.38783 15H12.6122C14.2091 15 15 14.2091 15 12.6426V3.35741C15 1.79087 14.2091 1 12.6122 1H3.38783C1.79848 1 1 1.78327 1 3.35741V12.6426C1 14.2167 1.79848 15 3.38783 15ZM3.40304 13.7757C2.64259 13.7757 2.22433 13.3726 2.22433 12.5817V3.41825C2.22433 2.62737 2.64259 2.22433 3.40304 2.22433H12.597C13.3498 2.22433 13.7757 2.62737 13.7757 3.41825V12.5817C13.7757 13.3726 13.3498 13.7757 12.597 13.7757H3.40304ZM5.09885 7.20533C5.09885 7.41064 5.25096 7.57795 5.47149 7.57795H10.5589C10.7719 7.57795 10.924 7.41064 10.924 7.20533C10.924 6.98479 10.7719 6.8327 10.5589 6.8327H10.0494C10.2015 6.61216 10.27 6.35361 10.27 6.13308C10.27 4.96198 9.22813 4.28517 7.98099 4.28517C7.15209 4.28517 6.40685 4.60456 6.0038 5.26616C5.89734 5.43346 5.82889 5.60836 5.82129 5.80609C5.82129 6.06464 5.98099 6.26236 6.27756 6.26236C6.46007 6.26236 6.61216 6.18631 6.71863 5.93536C6.92395 5.43346 7.43346 5.18251 8.0038 5.18251C8.71102 5.18251 9.31939 5.51711 9.31939 6.1711C9.31939 6.40685 9.20533 6.6654 8.97719 6.8327H5.47149C5.25096 6.8327 5.09885 6.98479 5.09885 7.20533ZM10.9088 8.72624C10.9088 8.52091 10.7566 8.35362 10.5437 8.35362H5.45627C5.23574 8.35362 5.08365 8.52091 5.08365 8.72624C5.08365 8.94677 5.23574 9.10646 5.45627 9.10646H5.95818C5.81369 9.31939 5.73765 9.57795 5.73765 9.79848C5.73765 10.9696 6.77947 11.6464 8.02662 11.6464C8.85551 11.6464 9.60837 11.327 10.0038 10.673C10.1179 10.5057 10.1787 10.3232 10.1863 10.1331C10.1939 9.86692 10.0266 9.6692 9.73764 9.6692C9.54753 9.6692 9.40304 9.74524 9.28897 9.9962C9.09126 10.4981 8.57415 10.749 8.0114 10.749C7.29658 10.749 6.69582 10.4221 6.69582 9.76046C6.69582 9.52471 6.80228 9.26616 7.03042 9.10646H10.5437C10.7566 9.10646 10.9088 8.94677 10.9088 8.72624Z" fill="#818A8F"/>
</g>
</svg>
