<svg width="211" height="32" viewBox="0 0 211 32" fill="none" xmlns="http://www.w3.org/2000/svg">
<path d="M11.5687 11.6688H13.358L15.0972 10.1876L15.0704 13.7031H15.1416H15.1894H15.235L15.277 13.7779L18.1636 12.1353L18.1052 12.0313L18.2243 12.0301L18.1927 8.0505L17.8216 6.88141L15.9026 6.08643L15.8734 6.08876C15.5548 6.11799 14.8019 6.18931 14.7039 6.22204C14.67 6.23373 14.5813 6.26413 11.5208 9.42302C8.46033 6.26413 8.37045 6.23256 8.33776 6.22204C8.23972 6.18931 7.48802 6.11799 7.1682 6.08876L7.13901 6.08643L5.22008 6.88141L4.8489 8.0318L4.81738 12.0301L4.93644 12.0313L4.87808 12.1353L7.76465 13.7779L7.80667 13.7031L7.97125 13.7019L7.94441 10.1864L9.68359 11.6677H11.473V11.6431H11.5617V11.5391L11.5687 11.5473V11.5952V11.6688ZM11.4671 11.4315H11.4006L9.76062 10.1268L11.3621 9.60539C11.3702 9.61358 11.3796 9.62293 11.3878 9.63228L11.4368 9.58435L11.452 9.59137L11.4613 9.57266L11.466 9.56214V11.4315H11.4671ZM11.2897 9.52823L9.69059 10.0485L7.92573 7.8389L11.2535 9.49082C11.2652 9.50368 11.2769 9.51654 11.2897 9.52823ZM9.5657 10.0461L7.96775 9.89533C7.93974 9.87195 7.90472 9.86026 7.86854 9.86026L7.76932 7.79681L9.5657 10.0461ZM7.25807 6.33895C7.65026 6.37519 8.05062 6.41728 8.20353 6.43949L7.71796 7.55481L7.25807 6.33895ZM7.63626 7.60742L5.61344 6.97961L7.15536 6.34012L7.63626 7.60742ZM7.77282 9.83804L5.15238 8.13584L7.67127 7.73718L7.77282 9.83804ZM5.08585 8.2773V8.20716L7.70162 9.90585L6.02664 10.2554L5.08585 8.2773ZM5.9461 10.308L5.05783 11.76L5.08351 8.49359L5.9461 10.308ZM5.05667 11.9459L5.99746 10.4062L7.63742 13.433L5.0555 11.9646L5.05667 11.9459ZM6.07216 10.3443L7.70863 10.0017C7.70863 10.0076 7.70629 10.0122 7.70629 10.0181L7.73197 13.4061L6.07216 10.3443ZM9.6439 10.149L9.67658 11.3485L8.09615 10.0029L9.6439 10.149ZM9.74078 10.232L11.2477 11.4315H9.77347L9.74078 10.232ZM14.9478 10.0029L13.3674 11.3485L13.4001 10.149L14.9478 10.0029ZM17.629 7.06262L17.9476 8.04933L15.5361 7.66704L17.5659 7.0369L17.629 7.06262ZM15.8863 6.34012L17.4282 6.97961L15.4054 7.60742L15.8863 6.34012ZM15.3237 7.55598L14.8381 6.44066C14.9922 6.41845 15.3925 6.37636 15.7836 6.34012L15.3237 7.55598ZM15.3727 7.73718L17.8916 8.13584L15.2711 9.83804L15.3727 7.73718ZM17.0162 10.2566L15.3412 9.90702L17.957 8.20833V8.2773L17.0162 10.2566ZM16.9706 10.3443L15.3108 13.4061L15.3365 10.0029V10.0017L16.9706 10.3443ZM17.9593 8.49359L17.985 11.76L17.0967 10.308L17.9593 8.49359ZM15.2618 7.65184L15.1171 7.69627L15.1719 7.70445L11.9877 9.28506C13.0721 8.16858 14.4564 6.75281 14.7529 6.48158L15.2618 7.65184ZM15.1743 9.8509C15.1416 9.85324 15.1112 9.86376 15.0856 9.88598L15.075 9.89533L13.4771 10.0461L15.2735 7.79564L15.1743 9.8509ZM17.0453 10.4062L17.9861 11.9459V11.9646L15.4054 13.433L17.0453 10.4062ZM11.7893 9.49199L15.1171 7.84006L13.3534 10.0496L11.7543 9.5294C11.7659 9.51654 11.7776 9.50368 11.7893 9.49199ZM13.302 10.232L13.2693 11.4315H11.7951L13.302 10.232ZM11.0551 9.28623L7.87087 7.70562L7.92573 7.69744L7.78099 7.65301L8.28991 6.48392C8.58639 6.75515 9.97073 8.16975 11.0551 9.28623ZM5.41384 7.06262L5.4757 7.0369L7.50553 7.66704L5.09402 8.04933L5.41384 7.06262ZM11.5628 9.54109L11.5698 9.54811L11.5815 9.57149L11.5909 9.5902L11.606 9.58318L11.655 9.63111C11.6632 9.62293 11.6726 9.61358 11.6807 9.60423L13.2822 10.1256L11.6422 11.4303H11.5687V11.4888L11.5617 11.4946V9.54109H11.5628Z" fill="white"/>
<path d="M22.1532 14.823L18.7099 12.7993L18.6492 12.9022L18.5885 12.7993L15.7265 14.4851L15.7696 14.5588L15.6891 14.7026L18.7438 16.434L16.5949 17.2045L15.7019 18.757L15.723 18.7687L15.6786 18.8459L15.7685 18.8973L15.758 18.8985L15.7171 18.8751L15.6552 18.8389L14.7623 20.3914L15.1755 22.6396L12.1477 20.8626L12.1115 20.9245L12.087 20.9654L12.0637 21.004H11.9785L11.9586 24.3301L12.0777 24.3313L12.0543 24.3722L12.0193 24.4341L15.4778 26.3935L16.6742 26.6542L18.32 25.3858L18.3329 25.3589C18.4671 25.0678 18.7811 24.3792 18.8021 24.2775C18.8091 24.2424 18.8278 24.15 17.622 19.9168C21.8825 18.8377 21.9537 18.7757 21.9805 18.7523C22.0575 18.6834 22.4941 18.0661 22.6785 17.8042L22.6948 17.7797L22.9645 15.7174L22.1532 14.823ZM22.7135 15.798L22.7042 15.8647L21.1459 17.312L22.019 15.0288L22.7135 15.798ZM15.402 26.0779L14.1589 24.2728L15.2981 22.9938L15.4627 26.1118L15.402 26.0779ZM17.1563 23.9887L15.4288 22.8769C15.4428 22.8477 15.4487 22.8149 15.4428 22.7822L15.4405 22.7682L16.107 21.3056L17.1563 23.9887ZM17.1586 24.1033L15.556 26.0896L15.3915 22.9658L17.1586 24.1033ZM17.1376 24.281L16.6696 26.3573L16.6159 26.3982L15.6027 26.1819L17.1376 24.281ZM17.2544 24.198L18.1111 25.2478L16.7875 26.2673L17.2544 24.198ZM12.2843 21.2215L15.2152 22.9424H15.2164L14.1052 24.1898L12.2843 21.2215ZM14.0736 24.3172L15.2129 25.9715L12.373 24.3628L14.0736 24.3172ZM17.3396 24.1524L18.5465 24.288C18.4893 24.4341 18.3247 24.8024 18.1613 25.159L17.3396 24.1524ZM17.287 24.0507L17.3209 23.9034L17.2859 23.9466L17.5077 20.3949C17.9325 21.8937 18.466 23.8017 18.5535 24.1945L17.287 24.0507ZM17.4294 20.1178L17.1972 23.832L16.1665 21.1981L17.4154 20.0699C17.4201 20.0851 17.4248 20.1015 17.4294 20.1178ZM15.4101 22.6045L15.0343 20.5609L16.0556 21.1876L15.4101 22.6045ZM15.0121 20.4358L15.7486 19.1557L16.0346 21.0625L15.0121 20.4358ZM14.0141 24.2237L12.2131 24.2716L12.1967 24.2623L12.2142 21.2893L14.0141 24.2237ZM15.9459 18.8131L17.894 18.0415L17.545 19.6923C17.5333 19.6958 17.5217 19.6981 17.51 19.7016L17.5263 19.7683L17.5123 19.7776L17.524 19.794L17.5298 19.8034L15.912 18.8704L15.9459 18.8131ZM18.8266 13.1442L21.6385 14.7973L19.6402 14.6406L18.8266 13.1442ZM21.8264 14.9072L21.8871 14.9423L19.1114 16.3639L19.6449 14.7353L21.8264 14.9072ZM18.9889 16.6C19.0227 16.5872 19.0507 16.5626 19.0682 16.5322L20.9031 17.4757L18.0598 17.9118L18.9889 16.6ZM20.7876 17.5891L17.6967 19.6525C17.6804 19.6572 17.6641 19.6607 17.6477 19.6654L17.9956 18.017L20.7876 17.5891ZM20.93 17.609L20.9101 17.6604L21.021 17.5575L21.7786 18.5828C21.3957 18.7044 19.4803 19.2001 17.9734 19.5836L20.93 17.609ZM19.1348 16.4586L21.9151 15.0346L21.0035 17.4196L19.1348 16.4586ZM18.6504 13.0401L18.6667 13.0495L19.5293 14.6348L16.0918 14.5471L18.6504 13.0401ZM16.0685 14.643L19.5456 14.7318L19.0251 16.323C19.0204 16.3195 19.0169 16.3159 19.0122 16.3124L16.0685 14.643ZM18.8313 16.6562L17.9314 17.927L16.8773 17.3564L18.8313 16.6562ZM16.7583 17.4009L17.8123 17.9714L16.0229 18.6799L16.7583 17.4009ZM15.8093 18.9219L17.4995 19.8969L17.4901 19.8992L17.4633 19.8981L17.4435 19.8969L17.4423 19.9132L17.3769 19.932C17.3804 19.9436 17.3839 19.9553 17.3874 19.967L16.1373 21.0975L15.8268 19.0236L15.863 18.9604L15.8128 18.9312L15.8093 18.9219ZM21.8591 18.5302L21.1366 17.5528L22.4182 17.7598C22.1906 18.0813 21.9548 18.4086 21.8591 18.5302ZM22.4684 17.6709L21.1319 17.4546L22.6855 16.0132L22.4684 17.6709Z" fill="white"/>
<path d="M11.0214 21.0053H10.9362L10.9128 20.9667L10.8883 20.9258L10.8522 20.8638L7.82435 22.642L8.23755 20.3938L7.34461 18.8413L7.2419 18.9009L7.23139 18.8997L7.32127 18.8483L7.27691 18.7711L7.29792 18.7595L6.40499 17.2069L4.25611 16.4365L7.31076 14.705L7.23022 14.5612L7.27341 14.4876L4.41135 12.8018L4.35065 12.9046L4.28996 12.8018L0.862954 14.8161L0.0377197 15.7222L0.307351 17.7844L0.323692 17.809C0.508115 18.0709 0.944661 18.6893 1.0217 18.7571C1.04854 18.7805 1.11975 18.8436 5.38016 19.9215C4.1744 24.1548 4.19308 24.2472 4.20008 24.2822C4.22109 24.3828 4.53508 25.0714 4.66931 25.3637L4.68098 25.3905L6.32678 26.659L7.50803 26.4077L10.9829 24.4401L10.9479 24.3781L10.9245 24.3372L11.0436 24.336L11.0214 21.0053ZM7.08665 18.8705L5.47003 19.8035L5.47587 19.7941L5.48754 19.7766L5.47353 19.7672L5.48987 19.7006C5.4782 19.6971 5.46653 19.6947 5.45369 19.6912L5.10469 18.0405L7.0528 18.8121L7.08665 18.8705ZM5.00431 18.0182L5.35214 19.6667C5.3358 19.662 5.31946 19.6585 5.30312 19.6538L2.21228 17.5904L5.00431 18.0182ZM2.09672 17.4758L3.93162 16.5323C3.95029 16.5627 3.97714 16.5873 4.01099 16.6001L4.94011 17.9119L2.09672 17.4758ZM1.17227 14.9073L3.355 14.7354L3.88843 16.364L1.11274 14.9424L1.17227 14.9073ZM3.35967 14.6396L1.3602 14.7974L4.17323 13.1443L3.35967 14.6396ZM3.86508 16.4587L1.99634 17.4197L1.08473 15.0347L3.86508 16.4587ZM1.97766 17.5576L2.08855 17.6605L2.06871 17.6091L5.02532 19.5825C3.51841 19.199 1.60298 18.7033 1.21896 18.5818L1.97766 17.5576ZM5.49221 20.3938L5.71398 23.9455L5.67897 23.9023L5.71282 24.0496L4.44753 24.1922C4.53391 23.8006 5.06617 21.8915 5.49221 20.3938ZM6.89289 21.3069L7.55938 22.7694L7.55705 22.7835C7.55121 22.8162 7.55705 22.8489 7.57106 22.8782L5.84355 23.99L6.89289 21.3069ZM5.7455 24.1981L6.21239 26.2674L4.88875 25.2479L5.7455 24.1981ZM5.86222 24.2811L7.39597 26.1832L6.38398 26.3995L6.33029 26.3586L5.86222 24.2811ZM5.84121 24.1034L7.60841 22.9658L7.44383 26.0897L5.84121 24.1034ZM5.65912 24.1525L4.83739 25.1602C4.67281 24.8013 4.5094 24.4331 4.4522 24.2893L5.65912 24.1525ZM7.53721 26.1119L7.70179 22.9939L8.84101 24.2729L7.59907 26.078L7.53721 26.1119ZM8.92505 24.3173L10.6245 24.3629L7.78583 25.9704L8.92505 24.3173ZM8.89353 24.1899L7.78233 22.9425H7.78349L10.7144 21.2216L8.89353 24.1899ZM7.98659 20.4359L6.96526 21.0626L7.25123 19.1558L7.98659 20.4359ZM7.96441 20.561L7.58856 22.6046L6.94192 21.1877L7.96441 20.561ZM5.80153 23.8321L5.56925 20.1179C5.57392 20.1016 5.57858 20.0852 5.58325 20.0688L6.83219 21.197L5.80153 23.8321ZM10.7856 24.2717L8.98458 24.2238L10.7845 21.2894L10.802 24.2624L10.7856 24.2717ZM7.1882 18.9301L7.13801 18.9594L7.17419 19.0225L6.86371 21.0976L5.6136 19.9671C5.6171 19.9554 5.62061 19.9437 5.62411 19.9321L5.55874 19.9133L5.55757 19.897L5.53656 19.8981L5.50972 19.8993L5.50038 19.897L7.19054 18.922L7.1882 18.9301ZM6.97693 18.68L5.18756 17.9715L6.24157 17.401L6.97693 18.68ZM6.12135 17.3565L5.06734 17.9271L4.1674 16.6563L6.12135 17.3565ZM3.98764 16.3114C3.98297 16.3137 3.97831 16.3184 3.9748 16.3219L3.45422 14.7308L6.93141 14.6419L3.98764 16.3114ZM6.90806 14.5484L3.47056 14.6361L4.33315 13.0508L4.34949 13.0414L6.90806 14.5484ZM0.980846 15.0289L1.85394 17.3121L0.295678 15.8648L0.286341 15.7981L0.980846 15.0289ZM0.314354 16.0133L1.86678 17.4547L0.530293 17.671L0.314354 16.0133ZM0.581652 17.7587L1.86444 17.5518L1.14192 18.5291C1.04388 18.4076 0.808095 18.0802 0.581652 17.7587Z" fill="white"/>
<path d="M5.09395 11.9974C5.09395 12.1003 5.01108 12.1833 4.90837 12.1833C4.80565 12.1833 4.72278 12.1003 4.72278 11.9974C4.72278 11.8945 4.80565 11.8115 4.90837 11.8115C5.01108 11.8127 5.09395 11.8957 5.09395 11.9974Z" fill="white"/>
<path d="M8.02023 13.6942C8.02023 13.7971 7.93736 13.8801 7.83464 13.8801C7.73192 13.8801 7.64905 13.7971 7.64905 13.6942C7.64905 13.5913 7.73192 13.5083 7.83464 13.5083C7.93736 13.5095 8.02023 13.5925 8.02023 13.6942Z" fill="white"/>
<path d="M9.89987 11.4886C9.89987 11.5915 9.81699 11.6745 9.71428 11.6745C9.61156 11.6745 9.52869 11.5915 9.52869 11.4886C9.52869 11.3857 9.61156 11.3027 9.71428 11.3027C9.81699 11.3027 9.89987 11.3857 9.89987 11.4886Z" fill="white"/>
<path d="M9.68156 10.2863C9.78406 10.2863 9.86715 10.2031 9.86715 10.1004C9.86715 9.99778 9.78406 9.91455 9.68156 9.91455C9.57906 9.91455 9.49597 9.99778 9.49597 10.1004C9.49597 10.2031 9.57906 10.2863 9.68156 10.2863Z" fill="white"/>
<path d="M13.3428 10.2863C13.4453 10.2863 13.5284 10.2031 13.5284 10.1004C13.5284 9.99778 13.4453 9.91455 13.3428 9.91455C13.2403 9.91455 13.1572 9.99778 13.1572 10.1004C13.1572 10.2031 13.2403 10.2863 13.3428 10.2863Z" fill="white"/>
<path d="M7.91805 7.681C7.91805 7.78388 7.83518 7.86689 7.73246 7.86689C7.62975 7.86689 7.54688 7.78388 7.54688 7.681C7.54688 7.57812 7.62975 7.49512 7.73246 7.49512C7.83518 7.49512 7.91805 7.57812 7.91805 7.681Z" fill="white"/>
<path d="M6.01835 10.4675C6.12085 10.4675 6.20394 10.3842 6.20394 10.2816C6.20394 10.1789 6.12085 10.0957 6.01835 10.0957C5.91585 10.0957 5.83276 10.1789 5.83276 10.2816C5.83276 10.3842 5.91585 10.4675 6.01835 10.4675Z" fill="white"/>
<path d="M17.0498 10.4675C17.1523 10.4675 17.2354 10.3842 17.2354 10.2816C17.2354 10.1789 17.1523 10.0957 17.0498 10.0957C16.9473 10.0957 16.8643 10.1789 16.8643 10.2816C16.8643 10.3842 16.9473 10.4675 17.0498 10.4675Z" fill="white"/>
<path d="M7.8173 10.092C7.9198 10.092 8.00289 10.0088 8.00289 9.9061C8.00289 9.80344 7.9198 9.72021 7.8173 9.72021C7.71481 9.72021 7.63171 9.80344 7.63171 9.9061C7.63171 10.0088 7.71481 10.092 7.8173 10.092Z" fill="white"/>
<path d="M5.41093 7.13251C5.51343 7.13251 5.59652 7.04929 5.59652 6.94663C5.59652 6.84397 5.51343 6.76074 5.41093 6.76074C5.30843 6.76074 5.22534 6.84397 5.22534 6.94663C5.22534 7.04929 5.30843 7.13251 5.41093 7.13251Z" fill="white"/>
<path d="M7.18229 6.37177C7.28479 6.37177 7.36789 6.28855 7.36789 6.18588C7.36789 6.08322 7.28479 6 7.18229 6C7.0798 6 6.9967 6.08322 6.9967 6.18588C6.9967 6.28855 7.0798 6.37177 7.18229 6.37177Z" fill="white"/>
<path d="M8.31645 6.52167C8.41894 6.52167 8.50204 6.43845 8.50204 6.33579C8.50204 6.23313 8.41894 6.1499 8.31645 6.1499C8.21395 6.1499 8.13086 6.23313 8.13086 6.33579C8.13086 6.43845 8.21395 6.52167 8.31645 6.52167Z" fill="white"/>
<path d="M5.18905 8.14194C5.18905 8.24482 5.10618 8.32783 5.00346 8.32783C4.90074 8.32783 4.81787 8.24482 4.81787 8.14194C4.81787 8.03906 4.90074 7.95605 5.00346 7.95605C5.10618 7.95605 5.18905 8.03906 5.18905 8.14194Z" fill="white"/>
<path d="M17.9495 11.9974C17.9495 12.1003 18.0323 12.1833 18.1351 12.1833C18.2378 12.1833 18.3206 12.1003 18.3206 11.9974C18.3206 11.8945 18.2378 11.8115 18.1351 11.8115C18.0323 11.8127 17.9495 11.8957 17.9495 11.9974Z" fill="white"/>
<path d="M15.0225 13.6942C15.0225 13.7971 15.1053 13.8801 15.2081 13.8801C15.3108 13.8801 15.3936 13.7971 15.3936 13.6942C15.3936 13.5913 15.3108 13.5083 15.2081 13.5083C15.1053 13.5095 15.0225 13.5925 15.0225 13.6942Z" fill="white"/>
<path d="M13.1439 11.4886C13.1439 11.5915 13.2268 11.6745 13.3295 11.6745C13.4322 11.6745 13.5151 11.5915 13.5151 11.4886C13.5151 11.3857 13.4322 11.3027 13.3295 11.3027C13.2268 11.3027 13.1439 11.3857 13.1439 11.4886Z" fill="white"/>
<path d="M15.1268 7.681C15.1268 7.78388 15.2097 7.86689 15.3124 7.86689C15.4151 7.86689 15.498 7.78388 15.498 7.681C15.498 7.57812 15.4151 7.49512 15.3124 7.49512C15.2097 7.49512 15.1268 7.57812 15.1268 7.681Z" fill="white"/>
<path d="M15.0409 9.9061C15.0409 10.009 15.1238 10.092 15.2265 10.092C15.3292 10.092 15.4121 10.009 15.4121 9.9061C15.4121 9.80322 15.3292 9.72021 15.2265 9.72021C15.1238 9.72138 15.0409 9.80439 15.0409 9.9061Z" fill="white"/>
<path d="M17.6329 7.13251C17.7354 7.13251 17.8184 7.04929 17.8184 6.94663C17.8184 6.84397 17.7354 6.76074 17.6329 6.76074C17.5304 6.76074 17.4473 6.84397 17.4473 6.94663C17.4473 7.04929 17.5304 7.13251 17.6329 7.13251Z" fill="white"/>
<path d="M15.8625 6.37177C15.965 6.37177 16.0481 6.28855 16.0481 6.18588C16.0481 6.08322 15.965 6 15.8625 6C15.76 6 15.6769 6.08322 15.6769 6.18588C15.6769 6.28855 15.76 6.37177 15.8625 6.37177Z" fill="white"/>
<path d="M14.7284 6.52167C14.8309 6.52167 14.914 6.43845 14.914 6.33579C14.914 6.23313 14.8309 6.1499 14.7284 6.1499C14.6259 6.1499 14.5428 6.23313 14.5428 6.33579C14.5428 6.43845 14.6259 6.52167 14.7284 6.52167Z" fill="white"/>
<path d="M17.8557 8.14194C17.8557 8.24482 17.9386 8.32783 18.0413 8.32783C18.144 8.32783 18.2269 8.24482 18.2269 8.14194C18.2269 8.03906 18.144 7.95605 18.0413 7.95605C17.9386 7.95605 17.8557 8.03906 17.8557 8.14194Z" fill="white"/>
<path d="M11.5143 9.73164C11.6168 9.73164 11.6999 9.64841 11.6999 9.54575C11.6999 9.44309 11.6168 9.35986 11.5143 9.35986C11.4118 9.35986 11.3287 9.44309 11.3287 9.54575C11.3287 9.64841 11.4118 9.73164 11.5143 9.73164Z" fill="white"/>
<path d="M11.5143 11.6989C11.6168 11.6989 11.6999 11.6157 11.6999 11.513C11.6999 11.4104 11.6168 11.3271 11.5143 11.3271C11.4118 11.3271 11.3287 11.4104 11.3287 11.513C11.3287 11.6157 11.4118 11.6989 11.5143 11.6989Z" fill="white"/>
<path d="M18.6028 13.058C18.5141 13.0065 18.4838 12.8931 18.5351 12.8043C18.5865 12.7154 18.6997 12.685 18.7884 12.7365C18.8771 12.7879 18.9075 12.9013 18.8561 12.9901C18.8036 13.0778 18.6915 13.1082 18.6028 13.058Z" fill="white"/>
<path d="M15.6747 14.7494C15.586 14.6979 15.5557 14.5845 15.607 14.4957C15.6584 14.4068 15.7716 14.3764 15.8603 14.4279C15.949 14.4793 15.9794 14.5927 15.928 14.6816C15.8767 14.7704 15.7634 14.8008 15.6747 14.7494Z" fill="white"/>
<path d="M16.6446 17.4808C16.5559 17.4294 16.5255 17.316 16.5769 17.2271C16.6282 17.1383 16.7414 17.1079 16.8302 17.1593C16.9189 17.2107 16.9492 17.3241 16.8979 17.413C16.8465 17.5019 16.7333 17.5322 16.6446 17.4808Z" fill="white"/>
<path d="M17.8637 18.1449C17.775 18.0934 17.7446 17.98 17.796 17.8912C17.8473 17.8023 17.9606 17.7719 18.0493 17.8234C18.138 17.8748 18.1683 17.9882 18.117 18.0771C18.0656 18.1659 17.9524 18.1963 17.8637 18.1449Z" fill="white"/>
<path d="M16.0351 21.3236C15.9464 21.2721 15.916 21.1587 15.9674 21.0699C16.0187 20.981 16.132 20.9506 16.2207 21.0021C16.3094 21.0535 16.3397 21.1669 16.2884 21.2558C16.237 21.3446 16.1238 21.375 16.0351 21.3236Z" fill="white"/>
<path d="M20.9296 17.662C20.8409 17.6105 20.8105 17.4971 20.8619 17.4083C20.9133 17.3194 21.0265 17.289 21.1152 17.3405C21.2039 17.3919 21.2342 17.5053 21.1829 17.5942C21.1315 17.683 21.0183 17.7134 20.9296 17.662Z" fill="white"/>
<path d="M19.5359 14.8744C19.4472 14.8229 19.4169 14.7095 19.4682 14.6207C19.5196 14.5318 19.6328 14.5014 19.7215 14.5529C19.8102 14.6043 19.8406 14.7177 19.7892 14.8066C19.7379 14.8954 19.6246 14.9258 19.5359 14.8744Z" fill="white"/>
<path d="M14.0298 24.4491C13.9411 24.3976 13.9108 24.2842 13.9621 24.1954C14.0135 24.1065 14.1267 24.0761 14.2154 24.1276C14.3041 24.179 14.3345 24.2924 14.2831 24.3813C14.2318 24.4701 14.1185 24.5005 14.0298 24.4491Z" fill="white"/>
<path d="M18.9612 16.6249C18.8725 16.5734 18.8422 16.46 18.8935 16.3712C18.9449 16.2823 19.0581 16.2519 19.1468 16.3034C19.2355 16.3548 19.2659 16.4682 19.2145 16.557C19.1632 16.6459 19.0499 16.6763 18.9612 16.6249Z" fill="white"/>
<path d="M22.7215 16.0145C22.6328 15.9631 22.6024 15.8497 22.6538 15.7608C22.7051 15.672 22.8184 15.6416 22.9071 15.693C22.9958 15.7444 23.0261 15.8578 22.9748 15.9467C22.9234 16.0344 22.8102 16.0659 22.7215 16.0145Z" fill="white"/>
<path d="M22.4969 17.9305C22.4082 17.8791 22.3778 17.7657 22.4292 17.6768C22.4805 17.588 22.5937 17.5576 22.6825 17.609C22.7712 17.6605 22.8015 17.7739 22.7502 17.8627C22.6976 17.9516 22.5844 17.982 22.4969 17.9305Z" fill="white"/>
<path d="M21.8014 18.8402C21.7127 18.7887 21.6824 18.6753 21.7337 18.5865C21.7851 18.4976 21.8983 18.4672 21.987 18.5187C22.0757 18.5701 22.1061 18.6835 22.0547 18.7724C22.0034 18.8612 21.8901 18.8916 21.8014 18.8402Z" fill="white"/>
<path d="M21.8935 15.0619C21.8048 15.0104 21.7744 14.897 21.8258 14.8082C21.8771 14.7193 21.9903 14.6889 22.0791 14.7404C22.1678 14.7918 22.1981 14.9052 22.1468 14.9941C22.0954 15.0829 21.9822 15.1133 21.8935 15.0619Z" fill="white"/>
<path d="M12.2771 24.3804C12.2808 24.2778 12.2007 24.1917 12.0983 24.188C11.9959 24.1842 11.9098 24.2644 11.9061 24.367C11.9024 24.4696 11.9824 24.5557 12.0849 24.5595C12.1873 24.5632 12.2733 24.483 12.2771 24.3804Z" fill="white"/>
<path d="M12.1787 20.8268C12.09 20.7753 11.9767 20.8057 11.9254 20.8946C11.874 20.9834 11.9044 21.0969 11.9931 21.1483C12.0818 21.1997 12.195 21.1693 12.2464 21.0805C12.2977 20.9916 12.2674 20.8782 12.1787 20.8268Z" fill="white"/>
<path d="M15.0262 20.297C14.9375 20.2456 14.8243 20.276 14.7729 20.3648C14.7216 20.4537 14.7519 20.5671 14.8406 20.6185C14.9293 20.6699 15.0425 20.6395 15.0939 20.5507C15.1441 20.4618 15.1137 20.3484 15.0262 20.297Z" fill="white"/>
<path d="M17.3305 23.9186C17.2418 23.8671 17.1286 23.8975 17.0772 23.9864C17.0259 24.0752 17.0562 24.1886 17.1449 24.2401C17.2336 24.2915 17.3469 24.2611 17.3982 24.1723C17.4496 24.0823 17.4192 23.9689 17.3305 23.9186Z" fill="white"/>
<path d="M15.4488 22.733C15.3601 22.6816 15.2469 22.712 15.1955 22.8008C15.1442 22.8897 15.1745 23.0031 15.2632 23.0545C15.3519 23.106 15.4652 23.0756 15.5165 22.9867C15.5667 22.8979 15.5364 22.7845 15.4488 22.733Z" fill="white"/>
<path d="M16.8057 26.298C16.717 26.2465 16.6038 26.2769 16.5525 26.3658C16.5011 26.4546 16.5314 26.568 16.6202 26.6195C16.7089 26.6709 16.8221 26.6405 16.8734 26.5517C16.9248 26.4628 16.8945 26.3494 16.8057 26.298Z" fill="white"/>
<path d="M18.3493 25.1417C18.2606 25.0903 18.1474 25.1207 18.096 25.2095C18.0447 25.2984 18.075 25.4118 18.1637 25.4632C18.2524 25.5147 18.3657 25.4843 18.417 25.3954C18.4684 25.3066 18.438 25.1932 18.3493 25.1417Z" fill="white"/>
<path d="M18.7862 24.0822C18.6975 24.0307 18.5843 24.0611 18.5329 24.15C18.4816 24.2388 18.5119 24.3522 18.6006 24.4037C18.6893 24.4551 18.8026 24.4247 18.8539 24.3359C18.9053 24.247 18.8749 24.1336 18.7862 24.0822Z" fill="white"/>
<path d="M15.5703 26.0573C15.4816 26.0058 15.3683 26.0362 15.317 26.1251C15.2656 26.2139 15.296 26.3273 15.3847 26.3788C15.4734 26.4302 15.5866 26.3998 15.638 26.311C15.6893 26.2221 15.659 26.1087 15.5703 26.0573Z" fill="white"/>
<path d="M17.4276 20.014C17.3389 19.9626 17.3086 19.8492 17.36 19.7603C17.4113 19.6715 17.5245 19.6411 17.6132 19.6925C17.7019 19.744 17.7323 19.8574 17.6809 19.9462C17.6284 20.0351 17.5152 20.0655 17.4276 20.014Z" fill="white"/>
<path d="M15.7256 19.0316C15.6369 18.9801 15.6066 18.8667 15.6579 18.7779C15.7093 18.689 15.8225 18.6586 15.9112 18.7101C15.9999 18.7615 16.0303 18.8749 15.9789 18.9638C15.9276 19.0515 15.8143 19.0819 15.7256 19.0316Z" fill="white"/>
<path d="M4.30412 13.0827C4.40662 13.0827 4.48971 12.9995 4.48971 12.8968C4.48971 12.7942 4.40662 12.7109 4.30412 12.7109C4.20162 12.7109 4.11853 12.7942 4.11853 12.8968C4.11853 12.9995 4.20162 13.0827 4.30412 13.0827Z" fill="white"/>
<path d="M7.32503 14.7494C7.41374 14.6979 7.44409 14.5845 7.39274 14.4957C7.34138 14.4068 7.22815 14.3764 7.13944 14.4279C7.05073 14.4793 7.02039 14.5927 7.07174 14.6816C7.1231 14.7704 7.23632 14.8008 7.32503 14.7494Z" fill="white"/>
<path d="M6.35397 17.4808C6.44268 17.4294 6.47303 17.316 6.42167 17.2271C6.37031 17.1383 6.25709 17.1079 6.16837 17.1593C6.07966 17.2107 6.04932 17.3241 6.10067 17.413C6.15203 17.5019 6.26526 17.5322 6.35397 17.4808Z" fill="white"/>
<path d="M5.13582 18.1444C5.22453 18.0929 5.25487 17.9795 5.20352 17.8907C5.15216 17.8018 5.03894 17.7714 4.95023 17.8229C4.86152 17.8743 4.83118 17.9877 4.88253 18.0766C4.93389 18.1654 5.04711 18.1958 5.13582 18.1444Z" fill="white"/>
<path d="M6.96456 21.3236C7.05327 21.2721 7.08361 21.1587 7.03226 21.0699C6.9809 20.981 6.86768 20.9506 6.77897 21.0021C6.69026 21.0535 6.65991 21.1669 6.71127 21.2558C6.76263 21.3446 6.87585 21.375 6.96456 21.3236Z" fill="white"/>
<path d="M2.07015 17.662C2.15886 17.6105 2.18921 17.4971 2.13785 17.4083C2.08649 17.3194 1.97327 17.289 1.88456 17.3405C1.79585 17.3919 1.7655 17.5053 1.81686 17.5942C1.86939 17.683 1.98261 17.7134 2.07015 17.662Z" fill="white"/>
<path d="M3.46566 14.8744C3.55437 14.8229 3.58472 14.7095 3.53336 14.6207C3.482 14.5318 3.36878 14.5014 3.28007 14.5529C3.19136 14.6043 3.16101 14.7177 3.21237 14.8066C3.26373 14.8954 3.37695 14.9258 3.46566 14.8744Z" fill="white"/>
<path d="M8.96981 24.4491C9.05851 24.3976 9.08886 24.2842 9.0375 24.1954C8.98615 24.1065 8.87293 24.0761 8.78422 24.1276C8.69551 24.179 8.66516 24.2924 8.71652 24.3813C8.76904 24.4701 8.88226 24.5005 8.96981 24.4491Z" fill="white"/>
<path d="M4.03829 16.6249C4.127 16.5734 4.15734 16.46 4.10599 16.3712C4.05463 16.2823 3.94141 16.2519 3.8527 16.3034C3.76399 16.3548 3.73364 16.4682 3.785 16.557C3.83752 16.6459 3.94958 16.6763 4.03829 16.6249Z" fill="white"/>
<path d="M0.278278 16.0145C0.366987 15.9631 0.397336 15.8497 0.345978 15.7608C0.29462 15.672 0.181399 15.6416 0.0926894 15.693C0.00398011 15.7444 -0.026368 15.8578 0.02499 15.9467C0.076348 16.0344 0.189569 16.0659 0.278278 16.0145Z" fill="white"/>
<path d="M0.502891 17.9305C0.591602 17.8791 0.62195 17.7657 0.570591 17.6768C0.519233 17.588 0.40601 17.5576 0.3173 17.609C0.22859 17.6605 0.198241 17.7739 0.2496 17.8627C0.300958 17.9516 0.414181 17.982 0.502891 17.9305Z" fill="white"/>
<path d="M1.19723 18.8402C1.28594 18.7887 1.31629 18.6753 1.26493 18.5865C1.21357 18.4976 1.10034 18.4672 1.01163 18.5187C0.922924 18.5701 0.892577 18.6835 0.943936 18.7724C0.995295 18.8612 1.10852 18.8916 1.19723 18.8402Z" fill="white"/>
<path d="M1.10641 15.0619C1.19512 15.0104 1.22546 14.897 1.1741 14.8082C1.12275 14.7193 1.00952 14.6889 0.920815 14.7404C0.832105 14.7918 0.801757 14.9052 0.853115 14.9941C0.904473 15.0829 1.0177 15.1133 1.10641 15.0619Z" fill="white"/>
<path d="M10.8118 24.213C10.9005 24.1616 11.0137 24.192 11.0651 24.2808C11.1165 24.3697 11.0861 24.4831 10.9974 24.5345C10.9087 24.586 10.7955 24.5556 10.7441 24.4667C10.6927 24.3767 10.7231 24.2633 10.8118 24.213Z" fill="white"/>
<path d="M10.821 20.8268C10.9097 20.7753 11.0229 20.8057 11.0742 20.8946C11.1256 20.9834 11.0953 21.0969 11.0065 21.1483C10.9178 21.1997 10.8046 21.1693 10.7533 21.0805C10.7019 20.9916 10.7323 20.8782 10.821 20.8268Z" fill="white"/>
<path d="M7.97355 20.297C8.06226 20.2456 8.17548 20.276 8.22684 20.3648C8.27819 20.4537 8.24784 20.5671 8.15913 20.6185C8.07043 20.6699 7.95721 20.6395 7.90585 20.5507C7.85449 20.4618 7.88484 20.3484 7.97355 20.297Z" fill="white"/>
<path d="M5.66813 23.9186C5.75684 23.8671 5.87006 23.8975 5.92142 23.9864C5.97278 24.0752 5.94243 24.1886 5.85372 24.2401C5.76501 24.2915 5.65179 24.2611 5.60043 24.1723C5.54907 24.0823 5.57942 23.9689 5.66813 23.9186Z" fill="white"/>
<path d="M7.55082 22.733C7.63953 22.6816 7.75275 22.712 7.80411 22.8008C7.85547 22.8897 7.82512 23.0031 7.73641 23.0545C7.6477 23.106 7.53448 23.0756 7.48312 22.9867C7.43176 22.8979 7.46211 22.7845 7.55082 22.733Z" fill="white"/>
<path d="M6.19401 26.298C6.28272 26.2465 6.39594 26.2769 6.4473 26.3658C6.49866 26.4546 6.46831 26.568 6.3796 26.6195C6.29089 26.6709 6.17767 26.6405 6.12631 26.5517C6.07495 26.4628 6.1053 26.3494 6.19401 26.298Z" fill="white"/>
<path d="M4.74223 25.489C4.84473 25.489 4.92782 25.4057 4.92782 25.3031C4.92782 25.2004 4.84473 25.1172 4.74223 25.1172C4.63973 25.1172 4.55664 25.2004 4.55664 25.3031C4.55664 25.4057 4.63973 25.489 4.74223 25.489Z" fill="white"/>
<path d="M4.21354 24.0822C4.30225 24.0307 4.41547 24.0611 4.46683 24.15C4.51819 24.2388 4.48784 24.3522 4.39913 24.4037C4.31042 24.4551 4.1972 24.4247 4.14584 24.3359C4.09448 24.247 4.12483 24.1336 4.21354 24.0822Z" fill="white"/>
<path d="M7.42859 26.0573C7.5173 26.0058 7.63052 26.0362 7.68188 26.1251C7.73324 26.2139 7.70289 26.3273 7.61418 26.3788C7.52547 26.4302 7.41225 26.3998 7.36089 26.311C7.3107 26.2221 7.34104 26.1087 7.42859 26.0573Z" fill="white"/>
<path d="M5.57198 20.014C5.66069 19.9626 5.69104 19.8492 5.63968 19.7603C5.58832 19.6715 5.4751 19.6411 5.38639 19.6925C5.29768 19.744 5.26733 19.8574 5.31869 19.9462C5.37005 20.0351 5.48327 20.0655 5.57198 20.014Z" fill="white"/>
<path d="M7.27413 19.0316C7.36284 18.9801 7.39318 18.8667 7.34182 18.7779C7.29047 18.689 7.17725 18.6586 7.08854 18.7101C6.99983 18.7615 6.96948 18.8749 7.02084 18.9638C7.0722 19.0515 7.18542 19.0819 7.27413 19.0316Z" fill="white"/>
<path d="M47.9165 9.18018V23.037H45.9231V12.2557H45.8828L41.6166 17.6122H41.2906L37.0244 12.2557H36.9841V23.037H35V9.18018H36.8661L41.4614 14.8719L46.0753 9.18018H47.9165Z" fill="white"/>
<path d="M53.2412 10.9647H61.5562V9.18018H50.4406V10.9771H53.2412V10.9647Z" fill="white"/>
<path d="M61.578 21.2524H50.422V23.04H61.578V21.2524Z" fill="white"/>
<path d="M61.5745 15.2192H50.4185V17.0068H61.5745V15.2192Z" fill="white"/>
<path d="M75.4334 9.18018V10.9647H70.6425V23.037H68.6461V10.9647H63.8521V9.18018H75.4334Z" fill="white"/>
<path d="M102.606 9.18018V23.037H100.622V10.9647H92.8538V23.037H90.8698V9.18018H102.606Z" fill="white"/>
<path d="M105.067 16.1131C105.067 15.1541 105.244 14.2448 105.598 13.3852C105.952 12.5255 106.452 11.7683 107.101 11.1196C107.75 10.4679 108.532 9.95275 109.448 9.57103C110.364 9.18931 111.386 9 112.51 9C113.656 9 114.686 9.18931 115.605 9.57103C116.524 9.95275 117.307 10.4648 117.953 11.1134C118.599 11.7621 119.095 12.5162 119.44 13.3727C119.788 14.2324 119.962 15.1448 119.962 16.11C119.962 17.0441 119.791 17.9379 119.449 18.7944C119.108 19.651 118.617 20.4051 117.974 21.06C117.332 21.7148 116.546 22.2362 115.618 22.6272C114.686 23.0182 113.637 23.2137 112.466 23.2137C111.712 23.2137 111.004 23.1268 110.343 22.9499C109.681 22.773 109.079 22.5279 108.532 22.2113C107.986 21.8917 107.498 21.5162 107.067 21.0755C106.638 20.6348 106.272 20.1538 105.977 19.6262C105.679 19.1017 105.452 18.54 105.297 17.9441C105.145 17.3545 105.067 16.7431 105.067 16.1131ZM107.123 16.1131C107.123 16.8672 107.259 17.5655 107.529 18.211C107.8 18.8565 108.175 19.4151 108.657 19.8869C109.135 20.3586 109.706 20.7279 110.364 20.9917C111.023 21.2555 111.74 21.3889 112.513 21.3889C113.286 21.3889 114.003 21.2555 114.668 20.9917C115.329 20.7279 115.9 20.3586 116.379 19.8869C116.857 19.4151 117.232 18.8565 117.506 18.211C117.779 17.5655 117.912 16.8672 117.912 16.1131C117.912 15.3465 117.776 14.6389 117.506 13.9965C117.235 13.351 116.86 12.7955 116.379 12.3238C115.9 11.8552 115.329 11.489 114.668 11.2221C114.006 10.9583 113.289 10.8248 112.513 10.8248C111.74 10.8248 111.023 10.9583 110.364 11.2221C109.706 11.4859 109.138 11.8521 108.657 12.3238C108.178 12.7924 107.803 13.351 107.529 13.9965C107.259 14.6421 107.123 15.3465 107.123 16.1131Z" fill="white"/>
<path d="M128.004 9.10205L134.204 23.0365H132.171L127.277 11.7989L122.682 23.0365H120.648L126.6 9.10205H128.004Z" fill="white"/>
<path d="M82.793 9.10205L88.9935 23.0365H86.9598L82.0664 11.7989L77.4711 23.0365H75.4374L81.3895 9.10205H82.793Z" fill="white"/>
<path d="M137.972 12.9038V23.0365H135.988V12.9038H137.972Z" fill="white"/>
<path d="M152.994 22.0068C152.656 22.1837 152.305 22.3482 151.942 22.4972C151.579 22.6461 151.194 22.7734 150.787 22.8789C150.38 22.9844 149.942 23.0682 149.476 23.1272C149.011 23.1861 148.508 23.2172 147.974 23.2172C147.107 23.2172 146.319 23.1148 145.614 22.9099C144.906 22.7051 144.276 22.4258 143.723 22.0751C143.17 21.7244 142.692 21.3179 142.285 20.8555C141.879 20.393 141.543 19.9058 141.279 19.3906C141.016 18.8786 140.817 18.3572 140.69 17.8296C140.559 17.2989 140.497 16.7962 140.497 16.312C140.497 15.6106 140.584 14.9403 140.755 14.3041C140.925 13.6648 141.171 13.0782 141.491 12.5382C141.807 11.9982 142.192 11.511 142.646 11.0765C143.099 10.6389 143.605 10.2665 144.17 9.96239C144.732 9.65515 145.344 9.41928 146.005 9.2517C146.667 9.08722 147.365 9.00342 148.098 9.00342C148.455 9.00342 148.815 9.02515 149.178 9.0686C149.542 9.11205 149.917 9.18032 150.305 9.27652C150.694 9.37273 151.097 9.49066 151.516 9.63342C151.936 9.77617 152.38 9.94687 152.852 10.1424V12.2744C152.42 12.0231 152.007 11.8058 151.606 11.6258C151.206 11.4458 150.812 11.2938 150.427 11.1727C150.038 11.0548 149.653 10.9679 149.265 10.9089C148.88 10.8531 148.483 10.8251 148.079 10.8251C147.284 10.8251 146.552 10.9586 145.875 11.2255C145.201 11.4924 144.617 11.8617 144.124 12.3303C143.63 12.7989 143.245 13.3576 142.969 14.0062C142.689 14.6548 142.552 15.3624 142.552 16.1289C142.552 16.9017 142.689 17.6124 142.959 18.2579C143.229 18.9003 143.611 19.4558 144.105 19.9182C144.599 20.3806 145.189 20.7406 145.875 20.9982C146.564 21.2558 147.325 21.383 148.157 21.383C148.952 21.383 149.759 21.2496 150.579 20.9858C151.398 20.722 152.206 20.331 153.001 19.8158V22.0068H152.994Z" fill="white"/>
<path d="M138.022 10.2444C138.022 10.8154 137.559 11.2778 136.988 11.2778C136.417 11.2778 135.954 10.8154 135.954 10.2444C135.954 9.67335 136.417 9.21094 136.988 9.21094C137.559 9.21094 138.022 9.67335 138.022 10.2444Z" fill="white"/>
<path d="M83.2495 19.2786C83.2495 19.8496 82.7869 20.312 82.2156 20.312C81.6443 20.312 81.1816 19.8496 81.1816 19.2786C81.1816 18.7075 81.6443 18.2451 82.2156 18.2451C82.7869 18.2451 83.2495 18.7075 83.2495 19.2786Z" fill="white"/>
</svg>
