<svg width="14" height="14" viewBox="0 0 14 14" fill="none" xmlns="http://www.w3.org/2000/svg">
<g id="Password">
<path id="Stroke 1" fill-rule="evenodd" clip-rule="evenodd" d="M9.88937 0.833496H4.11004C2.09604 0.833496 0.833374 2.2595 0.833374 4.2775V9.72283C0.833374 11.7408 2.09004 13.1668 4.11004 13.1668H9.88871C11.9094 13.1668 13.1667 11.7408 13.1667 9.72283V4.2775C13.1667 2.2595 11.9094 0.833496 9.88937 0.833496Z" stroke="#818A8F" stroke-linecap="round" stroke-linejoin="round"/>
<path id="Stroke 3" fill-rule="evenodd" clip-rule="evenodd" d="M6.12607 7.00029C6.12607 7.68229 5.57341 8.23496 4.89141 8.23496C4.20941 8.23496 3.65674 7.68229 3.65674 7.00029C3.65674 6.31829 4.20941 5.76562 4.89141 5.76562H4.89341C5.57407 5.76629 6.12607 6.31896 6.12607 7.00029Z" stroke="#818A8F" stroke-linecap="round" stroke-linejoin="round"/>
<path id="Stroke 5" d="M6.12799 7H10.34V8.23467" stroke="#818A8F" stroke-linecap="round" stroke-linejoin="round"/>
<path id="Stroke 7" d="M8.45449 8.23467V7" stroke="#818A8F" stroke-linecap="round" stroke-linejoin="round"/>
</g>
</svg>
