<svg width="16" height="16" viewBox="0 0 16 16" fill="none" xmlns="http://www.w3.org/2000/svg">
<g id="SidebarIcon">
<path id="Vector" d="M13.3333 2L12.136 3.19726M12.136 3.19726L13.9319 4.99316L11.8367 7.08837L10.0408 5.29248M12.136 3.19726L10.0408 5.29248M7.5804 7.75285C7.8895 8.05784 8.13521 8.42095 8.3034 8.82129C8.47158 9.22162 8.55892 9.65128 8.56037 10.0855C8.56183 10.5197 8.47738 10.95 8.31187 11.3514C8.14637 11.7529 7.9031 12.1176 7.59605 12.4247C7.289 12.7317 6.92425 12.975 6.5228 13.1405C6.12134 13.306 5.69111 13.3904 5.25689 13.389C4.82266 13.3875 4.39301 13.3002 3.99267 13.132C3.59233 12.9638 3.22922 12.7181 2.92424 12.409C2.32449 11.788 1.99262 10.9564 2.00012 10.0931C2.00763 9.22981 2.35389 8.40401 2.96434 7.79356C3.5748 7.18311 4.40059 6.83684 5.26387 6.82934C6.12714 6.82184 6.95883 7.1537 7.5798 7.75345L7.5804 7.75285ZM7.5804 7.75285L10.0408 5.29248" stroke="#818A8F" stroke-width="1.19726" stroke-linecap="round" stroke-linejoin="round"/>
</g>
</svg>
