<svg width="16" height="16" viewBox="0 0 16 16" fill="none" xmlns="http://www.w3.org/2000/svg">
<path d="M10.6665 2.66675H11.9998C12.3535 2.66675 12.6926 2.80722 12.9426 3.05727C13.1927 3.30732 13.3332 3.64646 13.3332 4.00008V13.3334C13.3332 13.687 13.1927 14.0262 12.9426 14.2762C12.6926 14.5263 12.3535 14.6667 11.9998 14.6667H3.99984C3.64622 14.6667 3.30708 14.5263 3.05703 14.2762C2.80698 14.0262 2.6665 13.687 2.6665 13.3334V4.00008C2.6665 3.64646 2.80698 3.30732 3.05703 3.05727C3.30708 2.80722 3.64622 2.66675 3.99984 2.66675H5.33317" stroke="#818A8F" stroke-linecap="round" stroke-linejoin="round"/>
<path d="M10.0002 1.33325H6.00016C5.63197 1.33325 5.3335 1.63173 5.3335 1.99992V3.33325C5.3335 3.70144 5.63197 3.99992 6.00016 3.99992H10.0002C10.3684 3.99992 10.6668 3.70144 10.6668 3.33325V1.99992C10.6668 1.63173 10.3684 1.33325 10.0002 1.33325Z" stroke="#818A8F" stroke-linecap="round" stroke-linejoin="round"/>
</svg>
