<svg width="22" height="18" viewBox="0 0 22 18" fill="none" xmlns="http://www.w3.org/2000/svg">
<g id="3 User">
<path id="Stroke 1" d="M16.8877 7.89673C18.2827 7.70073 19.3567 6.50473 19.3597 5.05573C19.3597 3.62773 18.3187 2.44373 16.9537 2.21973" stroke="#818A8F" stroke-width="1.5" stroke-linecap="round" stroke-linejoin="round"/>
<path id="Stroke 3" d="M18.7285 11.2505C20.0795 11.4525 21.0225 11.9255 21.0225 12.9005C21.0225 13.5715 20.5785 14.0075 19.8605 14.2815" stroke="#818A8F" stroke-width="1.5" stroke-linecap="round" stroke-linejoin="round"/>
<path id="Stroke 5" fill-rule="evenodd" clip-rule="evenodd" d="M10.8867 11.6641C7.67267 11.6641 4.92767 12.1511 4.92767 14.0961C4.92767 16.0401 7.65567 16.5411 10.8867 16.5411C14.1007 16.5411 16.8447 16.0591 16.8447 14.1131C16.8447 12.1671 14.1177 11.6641 10.8867 11.6641Z" stroke="#818A8F" stroke-width="1.5" stroke-linecap="round" stroke-linejoin="round"/>
<path id="Stroke 7" fill-rule="evenodd" clip-rule="evenodd" d="M10.8867 8.888C12.9957 8.888 14.7057 7.179 14.7057 5.069C14.7057 2.96 12.9957 1.25 10.8867 1.25C8.77766 1.25 7.06766 2.96 7.06766 5.069C7.05966 7.171 8.75666 8.881 10.8587 8.888H10.8867Z" stroke="#818A8F" stroke-width="1.5" stroke-linecap="round" stroke-linejoin="round"/>
<path id="Stroke 9" d="M4.88478 7.89673C3.48878 7.70073 2.41578 6.50473 2.41278 5.05573C2.41278 3.62773 3.45378 2.44373 4.81878 2.21973" stroke="#818A8F" stroke-width="1.5" stroke-linecap="round" stroke-linejoin="round"/>
<path id="Stroke 11" d="M3.04388 11.2505C1.69288 11.4525 0.749878 11.9255 0.749878 12.9005C0.749878 13.5715 1.19388 14.0075 1.91188 14.2815" stroke="#818A8F" stroke-width="1.5" stroke-linecap="round" stroke-linejoin="round"/>
</g>
</svg>
