<svg width="20" height="20" viewBox="0 0 20 20" fill="none" xmlns="http://www.w3.org/2000/svg">
<g id="Work">
<path id="Stroke 1" d="M9.99512 14.6771V12.1401" stroke="#818A8F" stroke-width="1.5" stroke-linecap="round" stroke-linejoin="round"/>
<g id="Group 8">
<path id="Stroke 2" fill-rule="evenodd" clip-rule="evenodd" d="M16.1899 3.33057C17.8799 3.33057 19.2399 4.70057 19.2399 6.39057V9.83057C16.7799 11.2706 13.5299 12.1406 9.98988 12.1406C6.44988 12.1406 3.20988 11.2706 0.749878 9.83057V6.38057C0.749878 4.69057 2.11988 3.33057 3.80988 3.33057H16.1899Z" stroke="#818A8F" stroke-width="1.5" stroke-linecap="round" stroke-linejoin="round"/>
<path id="Stroke 4" d="M13.4951 3.326V2.96C13.4951 1.74 12.5051 0.75 11.2851 0.75H8.70512C7.48512 0.75 6.49512 1.74 6.49512 2.96V3.326" stroke="#818A8F" stroke-width="1.5" stroke-linecap="round" stroke-linejoin="round"/>
<path id="Stroke 6" d="M0.774414 13.4834L0.963414 15.9924C1.09141 17.6834 2.50041 18.9904 4.19541 18.9904H15.7944C17.4894 18.9904 18.8984 17.6834 19.0264 15.9924L19.2154 13.4834" stroke="#818A8F" stroke-width="1.5" stroke-linecap="round" stroke-linejoin="round"/>
</g>
</g>
</svg>
